<svg id="TXT_copy" data-name="TXT copy" xmlns="http://www.w3.org/2000/svg" width="1920" height="1164" viewBox="0 0 1920 1164">
  <defs>
    <style>
      .cls-1 {
        fill: #fff;
        fill-rule: evenodd;
      }
    </style>
  </defs>
  <path id="Exclusions_Apply" data-name="Exclusions Apply" class="cls-1" d="M879.405,1129.43h7.837v-2.09h-5.689v-3.58h4.588v-2.1h-4.588v-3.39h5.689v-2.09h-7.837v13.25Zm9.364,0h2.459l2.478-3.15,2.478,3.15h2.441l-3.653-4.65,3.451-4.68H896l-2.312,3.13-2.313-3.13h-2.4l3.45,4.68Zm19.88-2.39-1.762-.97a2.733,2.733,0,0,1-2.514,1.64,2.955,2.955,0,0,1,0-5.9,2.726,2.726,0,0,1,2.514,1.65l1.762-.97A4.855,4.855,0,1,0,908.649,1127.04Zm2.408,2.39h2.019v-14h-2.019v14Zm5.159-3.75c0,2.39,1.3,3.94,3.413,3.94a2.97,2.97,0,0,0,2.68-1.46v1.27h2.019v-9.33h-2.019v4.59c0,2-.936,3.06-2.239,3.06-1.175,0-1.835-.91-1.835-2.41v-5.24h-2.019v5.58Zm17.567,1.06c0-1.45-.881-2.42-2.477-2.91l-0.918-.3c-0.991-.3-1.266-0.58-1.266-1.06a1.055,1.055,0,0,1,1.266-.84,2.566,2.566,0,0,1,1.909.87l1.193-1.26a3.755,3.755,0,0,0-3.029-1.33c-1.853,0-3.193,1.06-3.212,2.67a2.888,2.888,0,0,0,2.368,2.86l0.789,0.24c1.083,0.33,1.487.65,1.487,1.21a1.163,1.163,0,0,1-1.377.97,2.4,2.4,0,0,1-2.22-1.25l-1.469,1.07a3.874,3.874,0,0,0,3.6,1.94C932.37,1129.62,933.783,1128.57,933.783,1126.74Zm5-10.06a1.343,1.343,0,0,0-1.34-1.36,1.37,1.37,0,0,0,0,2.74A1.347,1.347,0,0,0,938.778,1116.68Zm-2.349,12.75h2.019v-9.33h-2.019v9.33Zm14.244-4.67a4.809,4.809,0,1,0-4.809,4.86A4.778,4.778,0,0,0,950.673,1124.76Zm-7.58,0a2.768,2.768,0,1,1,2.771,2.95A2.783,2.783,0,0,1,943.093,1124.76Zm10.171,4.67h2.019v-4.59c0-2,1.028-3.06,2.368-3.06,1.174,0,1.908.89,1.908,2.37v5.28h2.019v-5.62c0-2.37-1.376-3.9-3.5-3.9a3.133,3.133,0,0,0-2.79,1.46v-1.27h-2.019v9.33Zm17.641-2.69c0-1.45-.881-2.42-2.477-2.91l-0.918-.3c-0.991-.3-1.267-0.58-1.267-1.06a1.056,1.056,0,0,1,1.267-.84,2.566,2.566,0,0,1,1.909.87l1.193-1.26a3.755,3.755,0,0,0-3.029-1.33c-1.853,0-3.193,1.06-3.212,2.67a2.888,2.888,0,0,0,2.368,2.86l0.789,0.24c1.083,0.33,1.487.65,1.487,1.21a1.163,1.163,0,0,1-1.377.97,2.4,2.4,0,0,1-2.22-1.25l-1.469,1.07a3.874,3.874,0,0,0,3.6,1.94C969.492,1129.62,970.905,1128.57,970.905,1126.74Zm5.638,2.69h2.221l1.469-3.47h5.836l1.487,3.47H989.8l-5.69-13.25h-1.872Zm4.515-5.41,2.093-4.91,2.092,4.91h-4.185Zm10.723,9.31H993.8v-5.15a3.67,3.67,0,0,0,2.955,1.44,4.876,4.876,0,0,0,0-9.71,3.67,3.67,0,0,0-2.955,1.44v-1.25h-2.019v13.23Zm7.342-8.57a2.753,2.753,0,1,1-2.735-2.98A2.788,2.788,0,0,1,999.123,1124.76Zm4.667,8.57h2.02v-5.15a3.657,3.657,0,0,0,2.95,1.44,4.875,4.875,0,0,0,0-9.71,3.657,3.657,0,0,0-2.95,1.44v-1.25h-2.02v13.23Zm7.34-8.57a2.754,2.754,0,1,1-2.74-2.98A2.789,2.789,0,0,1,1011.13,1124.76Zm4.66,4.67h2.02v-14h-2.02v14Zm8.23,3.9,5.89-13.23h-2.24l-2.81,6.6-2.82-6.6h-2.22l3.94,8.83-1.96,4.4h2.22Zm-146.211.46v-1.68H1030.12v1.68H877.809Z"/>
  <g id="Group_1_image_2_" data-name="Group 1 (image 2)">
    <g>
      <g id="OFFER-1">
        <path id="_40_OFf" data-name="40% OFf" class="cls-1" d="M1303.63,451.133c0-1.44-.72-2.881-4.9-2.881-4.53,0-6.44.36-19.1,20.888-6.21,10.2-14.08,24.969-23.51,45.376h34.02v19.327h-10.63v1.681h31.52v-1.681H1300.4V514.516h10.63v-2.041H1300.4V480.424h-10.26v32.051h-31.4c3.58-6.6,7.04-12.724,10.86-19.207a135.788,135.788,0,0,1,13.02-18.606,250.514,250.514,0,0,1,17.31-18.967C1302.31,453.294,1303.63,452.094,1303.63,451.133Zm67.44,41.535c0-27.61-9.55-44.416-27.94-44.416-18.26,0-27.93,16.566-27.93,44.416,0,27.97,9.67,44.536,27.93,44.536S1371.07,520.638,1371.07,492.668ZM1330.72,458.7c2.15-5.762,6.32-8.763,12.29-8.763,6.69,0,10.15,3,12.66,9.123,2.26,5.522,3.46,16.086,3.46,34.452,0,34.213-4.9,42.016-16.12,42.016-6.09,0-10.26-3.122-12.41-9-1.79-4.921-3.46-12.6-3.46-30.13C1327.14,477.783,1327.61,466.979,1330.72,458.7Zm87.01,9.483c0-10.924-10.86-19.927-19.81-19.927-9.31,0-20.06,9.244-20.06,19.687,0,10.684,10.03,19.927,20.3,19.927C1407.95,487.866,1417.73,477.9,1417.73,468.179ZM1396.6,537.2l45.37-87.871-2.15-1.081-45.36,87.872Zm1.32-51.018c-8.12,0-11.7-5.162-11.7-18.727,0-11.524,3.94-17.526,11.1-17.526,7.76,0,12.06,4.441,12.06,17.046C1409.38,480.9,1405.92,486.186,1397.92,486.186Zm60.64,31.331c0-10.684-10.5-19.927-20.05-19.927-8.96,0-19.82,9.243-19.82,19.567,0,10.564,9.79,20.047,20.41,20.047C1448.77,537.2,1458.56,527.241,1458.56,517.517Zm-19.82,18.007c-8.11,0-11.69-5.162-11.69-18.727,0-11.524,3.93-17.526,11.1-17.526,7.76,0,12.05,4.441,12.05,17.046C1450.2,530.362,1446.62,535.524,1438.74,535.524Zm135.96-42.856c0-24.729-19.7-44.776-41.54-44.776-20.53,0-41.54,20.167-41.54,44.776,0,23.889,18.14,44.656,41.54,44.656C1555.72,537.324,1574.7,515.957,1574.7,492.668Zm-41.54,42.976c-19.1,0-27.82-12-27.82-42.976,0-31.091,9.91-43.1,27.7-43.1,19.1,0,27.93,13.445,27.93,43.215C1560.97,523.639,1552.26,535.644,1533.16,535.644Zm46.07-83.911h13.25v82.11h-13.25v1.681h38.43v-1.681h-13.25V492.308h9.91c9.55,0,12.89,6.242,15.28,18.007h1.31V472.981h-1.31c-3.22,13.085-5.97,17.646-16.95,17.646h-8.24V451.733h19.94c10.98,0,17.19,4.322,21.84,19.087h1.32V450.053h-68.28v1.68Zm77.22,0h13.25v82.11h-13.25v1.681h38.44v-1.681h-13.25V492.308h9.91c9.55,0,12.89,6.242,15.28,18.007h1.31V472.981h-1.31c-3.22,13.085-5.97,17.646-16.95,17.646h-8.24V451.733h19.94c10.98,0,17.19,4.322,21.84,19.087h1.31V450.053h-68.28v1.68Z"/>
        <path id="PURCHASE" class="cls-1" d="M1355.51,577.155c0.28-.035.7-0.071,1.25-0.107s1.16-.053,1.84-0.053a19.75,19.75,0,0,1,4.4.426,6.317,6.317,0,0,1,2.99,1.521,6.508,6.508,0,0,1,1.68,2.907,16.574,16.574,0,0,1,.53,4.535q0,4.695-2.21,7.015a8.116,8.116,0,0,1-6.16,2.321c-0.61,0-1.3-.035-2.08-0.107a20.919,20.919,0,0,1-2.24-.32V577.155Zm-11.26,37.236h17.18v-0.747h-5.92v-17.6c0.6,0.106,1.29.205,2.08,0.293a17.575,17.575,0,0,0,1.92.133,22.4,22.4,0,0,0,5.62-.693,16.376,16.376,0,0,0,4.72-1.974,10.645,10.645,0,0,0,3.26-3.147,7.656,7.656,0,0,0,1.22-4.268,8.246,8.246,0,0,0-1.06-4.161,10.045,10.045,0,0,0-2.96-3.2,14.561,14.561,0,0,0-4.48-2.054,20.961,20.961,0,0,0-5.63-.72q-0.75,0-1.47.027c-0.48.018-.97,0.026-1.46,0.026q-0.75.054-1.5,0.08c-0.5.019-.99,0.027-1.49,0.027h-10.03v0.747h5.92v36.489h-5.92v0.747Zm31.4-37.236h5.92v25.233q0,6.508,3.39,9.656c2.25,2.1,5.52,3.147,9.78,3.147a16.479,16.479,0,0,0,6.78-1.173,10.21,10.21,0,0,0,4-3.094,11.137,11.137,0,0,0,1.97-3.815,16.165,16.165,0,0,0,.48-4.081V577.155h5.92v-0.747h-12.64v0.747h5.92v24.806a26.54,26.54,0,0,1-.16,3.228,13.576,13.576,0,0,1-.45,2.24,8.152,8.152,0,0,1-.7,1.627,11.053,11.053,0,0,1-.93,1.387,8.81,8.81,0,0,1-3.95,3.121,14.676,14.676,0,0,1-5.28.88,11.255,11.255,0,0,1-3.78-.586,6.223,6.223,0,0,1-2.78-1.948,9.212,9.212,0,0,1-1.68-3.574,22.585,22.585,0,0,1-.56-5.415V577.155h5.92v-0.747h-17.17v0.747Zm52.84,0a13.885,13.885,0,0,1,1.68-.134q0.99-.025,1.95-0.026a15.159,15.159,0,0,1,2.8.266,6.2,6.2,0,0,1,2.56,1.121,6.056,6.056,0,0,1,1.87,2.534,11.479,11.479,0,0,1,.72,4.454,14.386,14.386,0,0,1-.48,4.055,6.325,6.325,0,0,1-1.36,2.534,4.768,4.768,0,0,1-2.11,1.307,9.351,9.351,0,0,1-2.72.373h-4.91V577.155Zm-11.25,37.236h17.17v-0.747h-5.92V594.386h5.34a20.369,20.369,0,0,1,2.13.133,5.714,5.714,0,0,1,2.37.827,5.85,5.85,0,0,1,2,2.187,10.055,10.055,0,0,1,1.07,4.161l0.37,4.855a21.359,21.359,0,0,0,.56,3.548,6.677,6.677,0,0,0,1.26,2.56,5.192,5.192,0,0,0,2.26,1.574,10.17,10.17,0,0,0,3.55.534,11.24,11.24,0,0,0,1.89-.134,6.616,6.616,0,0,0,1.31-.347,4.535,4.535,0,0,0,.88-0.453c0.23-.16.43-0.311,0.61-0.454l-0.48-.586a3.519,3.519,0,0,1-1.33.853,4.264,4.264,0,0,1-1.44.267,2.433,2.433,0,0,1-2.24-1.12,8.209,8.209,0,0,1-1.01-2.508,13.318,13.318,0,0,1-.3-2.24c-0.05-.889-0.1-1.814-0.16-2.774s-0.12-1.894-.21-2.8a13.221,13.221,0,0,0-.45-2.427,6.235,6.235,0,0,0-1.82-2.961,10.917,10.917,0,0,0-2.8-1.841,13.719,13.719,0,0,0-2.98-.986c-0.98-.2-1.76-0.329-2.32-0.4v-0.106a12.944,12.944,0,0,0,4.96-1.467,9.627,9.627,0,0,0,2.85-2.4,6.951,6.951,0,0,0,1.28-2.561,9.714,9.714,0,0,0,.29-2.053,8.828,8.828,0,0,0-.77-3.415,8.3,8.3,0,0,0-2.64-3.254,9.267,9.267,0,0,0-4.48-2,39.261,39.261,0,0,0-5.55-.347c-0.42,0-.85.009-1.28,0.027s-0.85.026-1.28,0.026c-0.42.036-.85,0.063-1.28,0.08s-0.85.027-1.28,0.027h-10.13v0.747h5.92v36.489h-5.92v0.747Zm69.2-11.363h-0.58q-0.54,2.028-1.23,4.081a11.541,11.541,0,0,1-2.03,3.681,9.748,9.748,0,0,1-3.52,2.641,13.77,13.77,0,0,1-5.76,1.013,14.389,14.389,0,0,1-5.06-.853,8.68,8.68,0,0,1-3.92-2.988,15.768,15.768,0,0,1-2.54-5.814,39.983,39.983,0,0,1-.9-9.283c0-1.315.04-2.711,0.13-4.188a33.637,33.637,0,0,1,.56-4.374,20.585,20.585,0,0,1,1.25-4.108,11.316,11.316,0,0,1,2.22-3.414,10.2,10.2,0,0,1,3.41-2.347,12.127,12.127,0,0,1,4.85-.88,12.328,12.328,0,0,1,5.1.933,9.823,9.823,0,0,1,3.38,2.454,11.167,11.167,0,0,1,2.08,3.494,32.064,32.064,0,0,1,1.23,4h0.59V576.408h-0.8a5.783,5.783,0,0,1-.83.773,2.544,2.544,0,0,1-1.52.347,4.705,4.705,0,0,1-1.65-.32c-0.57-.213-1.19-0.453-1.87-0.72a18.72,18.72,0,0,0-2.29-.72,12.163,12.163,0,0,0-2.94-.32,17.6,17.6,0,0,0-7.57,1.627,19.316,19.316,0,0,0-6.03,4.4,20.706,20.706,0,0,0-5.44,14.03,18.536,18.536,0,0,0,1.76,8.269,23.077,23.077,0,0,0,4.38,6.188,17.626,17.626,0,0,0,6,4,17.929,17.929,0,0,0,6.53,1.227,17.307,17.307,0,0,0,3.31-.293,26.576,26.576,0,0,0,2.69-.667q1.2-.372,2.13-0.667a5.87,5.87,0,0,1,1.74-.293,2.571,2.571,0,0,1,1.49.347,5.114,5.114,0,0,1,.85.773h0.8V603.028Zm4.08,11.363h17.18v-0.747h-5.92v-18.3h17.76v18.3h-5.92v0.747h17.17v-0.747h-5.92V577.155h5.92v-0.747h-17.17v0.747h5.92V594.6h-17.76V577.155h5.92v-0.747h-17.18v0.747h5.92v36.489h-5.92v0.747Zm66.24-16.324h-11.74l5.87-15.524Zm-23.2,16.324h11.46v-0.747h-5.92l5.6-14.83h12.38l5.6,14.83h-5.92v0.747h16.42v-0.747h-4.74l-14.51-38.2h-1.28l-14.4,38.2h-4.69v0.747Zm43.55,0h0.8a2.85,2.85,0,0,1,.51-0.853,1.46,1.46,0,0,1,1.09-.321,6.677,6.677,0,0,1,2.14.427c0.81,0.285,1.58.534,2.29,0.747a15.822,15.822,0,0,0,1.65.4q0.75,0.133,1.5.24a14.683,14.683,0,0,0,1.6.134c0.57,0.017,1.22.026,1.97,0.026a14.59,14.59,0,0,0,5.65-1.04,13.2,13.2,0,0,0,4.27-2.774,11.941,11.941,0,0,0,2.69-4,12.281,12.281,0,0,0,.94-4.775,8.743,8.743,0,0,0-1.04-4.481,9.33,9.33,0,0,0-2.51-2.827,11.555,11.555,0,0,0-3.01-1.6c-1.03-.355-1.89-0.64-2.56-0.853l-6.46-2.027c-0.92-.285-1.84-0.614-2.74-0.987a11,11,0,0,1-2.46-1.387,6.667,6.667,0,0,1-1.78-2.028,5.641,5.641,0,0,1-.7-2.907,6.524,6.524,0,0,1,.88-3.521,7.247,7.247,0,0,1,2.22-2.24,8.962,8.962,0,0,1,2.88-1.2,12.976,12.976,0,0,1,2.82-.346,9.044,9.044,0,0,1,6.99,3.014,11.5,11.5,0,0,1,2,3.147,15.5,15.5,0,0,1,1.09,3.708h0.64v-9.656h-0.74a3.691,3.691,0,0,1-.67.933,1.613,1.613,0,0,1-.93.187,3.592,3.592,0,0,1-1.47-.32c-0.48-.213-1.02-0.453-1.63-0.72a13.552,13.552,0,0,0-2.16-.72,14.168,14.168,0,0,0-7.84.533,11.166,11.166,0,0,0-3.7,2.347,10.486,10.486,0,0,0-2.4,3.548,11.48,11.48,0,0,0-.86,4.455,7.864,7.864,0,0,0,2.22,5.868,15.753,15.753,0,0,0,6.53,3.521l6.13,1.867a16.1,16.1,0,0,1,2.38.907,9.949,9.949,0,0,1,2.32,1.52,7.862,7.862,0,0,1,1.76,2.267,6.894,6.894,0,0,1,.69,3.2,10.223,10.223,0,0,1-.43,2.8,7.7,7.7,0,0,1-1.49,2.827,8.052,8.052,0,0,1-2.88,2.161,10.943,10.943,0,0,1-4.64.853q-1.02,0-2.16-.053a12.037,12.037,0,0,1-2.4-.373,10.092,10.092,0,0,1-2.48-1.014,9.14,9.14,0,0,1-2.35-1.974,14.162,14.162,0,0,1-2.05-3.254,21.492,21.492,0,0,1-1.52-4.855h-0.59v11.47Zm30.09,0h32.54V602.708h-0.59a19.425,19.425,0,0,1-.75,3.094,12.812,12.812,0,0,1-1.81,3.6,11.354,11.354,0,0,1-3.17,2.988,8.86,8.86,0,0,1-4.88,1.253h-10.08V594.386h4.32a6.389,6.389,0,0,1,3.12.667,5.3,5.3,0,0,1,1.92,1.787,9.407,9.407,0,0,1,1.12,2.561c0.26,0.96.52,1.956,0.77,2.987h0.59V585.8h-0.59a29.138,29.138,0,0,1-1.2,3.921,7.234,7.234,0,0,1-1.49,2.4,4.567,4.567,0,0,1-2.11,1.2,12.015,12.015,0,0,1-2.99.32h-3.46V577.155h8.85a11.493,11.493,0,0,1,3.73.533,7.119,7.119,0,0,1,2.67,1.627,9.93,9.93,0,0,1,1.92,2.668,26.929,26.929,0,0,1,1.49,3.654h0.59v-9.229H1607.2v0.747h5.92v36.489h-5.92v0.747Z"/>
      </g>
      <path id="SUMMER_IN_STYLE_EVENT" data-name="SUMMER IN STYLE EVENT" class="cls-1" d="M1311.2,372.991c3.61,0,6.08-2.16,6.11-5.257,0.02-2.569-1.59-4.2-4.07-5.089l-1.2-.432c-1.8-.649-2.65-1.057-2.65-1.969,0-.888,1.04-1.3,2.07-1.3a3.8,3.8,0,0,1,2.96,1.416l2.5-2.64a7.136,7.136,0,0,0-5.51-2.353c-3.41,0-5.89,1.945-5.89,5.257,0,2.329,1.54,3.985,4.31,4.921l1.2,0.408c1.71,0.577,2.38,1.177,2.38,2.041,0,0.816-.79,1.416-2.07,1.416a4.45,4.45,0,0,1-3.53-1.944l-2.94,2.472A7.488,7.488,0,0,0,1311.2,372.991Zm19.8,0a6.694,6.694,0,0,0,7.02-7.034v-10.3h-3.83v10.346a3.2,3.2,0,1,1-6.39,0V355.659h-3.83v10.3A6.68,6.68,0,0,0,1331,372.991Zm23.47-3.913,4.98-6.889V372.7h3.85V355.659h-3.49l-5.34,7.346-5.34-7.346h-3.48V372.7h3.82V362.189Zm25.48,0,4.98-6.889V372.7h3.85V355.659h-3.49l-5.34,7.346-5.34-7.346h-3.49V372.7h3.83V362.189Zm16.65,3.625h10.82v-3.649h-7v-3.049h5.56v-3.648h-5.56v-3.049h7v-3.649H1396.6V372.7Zm17.94,0h3.83v-7.034h0.62l5.68,7.034h4.6l-6.04-7.514c2.16-.768,3.34-2.184,3.34-4.393a5.038,5.038,0,0,0-5.29-5.137h-6.74V372.7Zm3.83-10.274v-3.265h2.45a1.7,1.7,0,0,1,1.95,1.632,1.729,1.729,0,0,1-1.95,1.633h-2.45ZM1443.7,372.7h3.82V355.659h-3.82V372.7Zm27.09,0V355.659h-3.85v10.515l-8.3-10.515h-3.3V372.7h3.83V362.165l8.32,10.538h3.3Zm22.42,0.288c3.61,0,6.08-2.16,6.11-5.257,0.02-2.569-1.59-4.2-4.07-5.089l-1.2-.432c-1.81-.649-2.65-1.057-2.65-1.969,0-.888,1.04-1.3,2.07-1.3a3.8,3.8,0,0,1,2.96,1.416l2.5-2.64a7.136,7.136,0,0,0-5.51-2.353c-3.41,0-5.89,1.945-5.89,5.257,0,2.329,1.54,3.985,4.31,4.921l1.2,0.408c1.71,0.577,2.38,1.177,2.38,2.041,0,0.816-.79,1.416-2.07,1.416a4.45,4.45,0,0,1-3.53-1.944l-2.94,2.472A7.488,7.488,0,0,0,1493.21,372.991Zm15.8-.288h3.85V359.308h4.4v-3.649h-12.6v3.649h4.35V372.7Zm19.42,0h3.84v-7.154l6.23-9.89h-4.45l-3.72,6.146-3.68-6.146h-4.45l6.23,9.866V372.7Zm16.28,0h10.9v-3.649h-7.07V355.659h-3.83V372.7Zm17.49,0h10.83v-3.649h-7v-3.049h5.55v-3.648h-5.55v-3.049h7v-3.649H1562.2V372.7Zm27.45,0h10.82v-3.649h-7v-3.049h5.56v-3.648h-5.56v-3.049h7v-3.649h-10.82V372.7Zm23.16,0h3.44l7.01-17.044h-4.21l-4.53,11.355-4.54-11.355h-4.17Zm16.48,0h10.83v-3.649h-7v-3.049h5.56v-3.648h-5.56v-3.049h7v-3.649h-10.83V372.7Zm33.39,0V355.659h-3.85v10.515l-8.29-10.515h-3.3V372.7h3.82V362.165l8.33,10.538h3.29Zm10.9,0h3.85V359.308h4.4v-3.649h-12.6v3.649h4.35V372.7Z"/>
    </g>
    <g id="CTA">
      <g id="CTA_M-TALL-CTA">
        <path id="shop_men" data-name="shop men" class="cls-1" d="M1455.52,813.412c2.94,0,4.96-1.8,4.98-4.379,0.02-2.139-1.29-3.5-3.31-4.238l-0.98-.36c-1.47-.54-2.16-0.88-2.16-1.64,0-.739.84-1.079,1.69-1.079a3.08,3.08,0,0,1,2.41,1.179l2.04-2.2a5.774,5.774,0,0,0-4.49-1.959c-2.79,0-4.81,1.619-4.81,4.378,0,1.94,1.26,3.319,3.51,4.1l0.98,0.34c1.4,0.48,1.95.979,1.95,1.7,0,0.68-.65,1.18-1.69,1.18a3.642,3.642,0,0,1-2.89-1.62l-2.39,2.06A6.068,6.068,0,0,0,1455.52,813.412Zm10.58-.24h3.12v-5.618h5.61v5.618h3.12v-14.2h-3.12v5.558h-5.61v-5.558h-3.12v14.2Zm24.65,0.24a7.339,7.339,0,1,0-7.2-7.338A7.289,7.289,0,0,0,1490.75,813.412Zm0-3.079a4.264,4.264,0,1,1,4.04-4.259A4.179,4.179,0,0,1,1490.75,810.333Zm22.43-6.5a4.786,4.786,0,0,0-4.9-4.858h-4.73v14.2h3.12v-4.5h1.61A4.77,4.77,0,0,0,1513.18,803.835Zm-3.02,0a1.845,1.845,0,0,1-1.92,1.859h-1.57v-3.718h1.57A1.834,1.834,0,0,1,1510.16,803.835Zm22.87,6.318,4.06-5.738v8.757h3.14v-14.2h-2.85l-4.35,6.118-4.36-6.118h-2.84v14.2h3.12v-8.757Zm13.58,3.019h8.83v-3.039h-5.71v-2.539h4.53v-3.039h-4.53v-2.539h5.71v-3.039h-8.83v14.2Zm27.24,0v-14.2h-3.14v8.757l-6.77-8.757h-2.68v14.2h3.11V804.4l6.79,8.777h2.69Zm-123.96,5.061v-2h128.87v2H1449.89Z"/>
      </g>
      <g id="CTA_W-TALL-CTA">
        <path id="shop_women" data-name="shop women" class="cls-1" d="M1433.65,740.059c2.94,0,4.96-1.8,4.98-4.378,0.02-2.139-1.3-3.5-3.32-4.239l-0.98-.36c-1.47-.539-2.15-0.879-2.15-1.639,0-.74.84-1.08,1.68-1.08a3.082,3.082,0,0,1,2.42,1.18l2.04-2.2a5.778,5.778,0,0,0-4.5-1.96c-2.78,0-4.8,1.62-4.8,4.379,0,1.939,1.25,3.319,3.51,4.1l0.98,0.34c1.39,0.48,1.94.98,1.94,1.7,0,0.679-.65,1.179-1.69,1.179a3.626,3.626,0,0,1-2.88-1.619l-2.39,2.059A6.066,6.066,0,0,0,1433.65,740.059Zm10.58-.24h3.12V734.2h5.61v5.618h3.12V725.624h-3.12v5.558h-5.61v-5.558h-3.12v14.195Zm24.65,0.24a7.339,7.339,0,1,0-7.2-7.337A7.289,7.289,0,0,0,1468.88,740.059Zm0-3.079a4.264,4.264,0,1,1,4.04-4.258A4.171,4.171,0,0,1,1468.88,736.98Zm22.43-6.5a4.79,4.79,0,0,0-4.91-4.859h-4.72v14.195h3.12v-4.5h1.6A4.772,4.772,0,0,0,1491.31,730.483Zm-3.02,0a1.852,1.852,0,0,1-1.92,1.859h-1.57v-3.719h1.57A1.84,1.84,0,0,1,1488.29,730.483Zm26.28,9.336h2.96l3.23-14.195h-3.33l-1.9,9-3.93-9.237-3.9,9.237-1.9-9h-3.34l3.22,14.195h2.96l2.96-6.957Zm17.66,0.24a7.339,7.339,0,1,0-7.19-7.337A7.283,7.283,0,0,0,1532.23,740.059Zm0-3.079a4.264,4.264,0,1,1,4.04-4.258A4.178,4.178,0,0,1,1532.23,736.98Zm20-.18,4.06-5.738v8.757h3.14V725.624h-2.84l-4.36,6.118-4.35-6.118h-2.85v14.195h3.12v-8.757Zm13.59,3.019h8.83V736.78h-5.71v-2.539h4.53V731.2h-4.53v-2.539h5.71v-3.039h-8.83v14.195Zm27.24,0V725.624h-3.14v8.757l-6.77-8.757h-2.69v14.195h3.12v-8.777l6.79,8.777h2.69Zm-165.04,5.061v-2h169.95v2H1428.02Z"/>
      </g>
    </g>
  </g>
</svg>
